<?xml version="1.0" encoding="UTF-8"?>
<svg id="Layer_2" data-name="Layer 2" xmlns="http://www.w3.org/2000/svg" viewBox="0 0 37.02 24.88">
  <defs>
    <style>
      .cls-1 {
        fill: #231f20;
      }

      .cls-2, .cls-3 {
        fill: none;
        stroke: #231f20;
        stroke-miterlimit: 10;
      }

      .cls-3 {
        stroke-width: .5px;
      }
    </style>
  </defs>
  <g id="Layer_1-2" data-name="Layer 1">
    <ellipse class="cls-2" cx="18.07" cy="7.33" rx="13.7" ry="2.28"/>
    <ellipse class="cls-2" cx="18.07" cy="22.1" rx="13.7" ry="2.28"/>
    <line class="cls-2" x1="31.76" y1="22.1" x2="31.76" y2="7.33"/>
    <line class="cls-2" x1="4.37" y1="7.33" x2="4.37" y2="22.1"/>
    <g>
      <path class="cls-1" d="M.23,.13S17.82,6.96,17.61,7.48C17.43,7.91-.08,1.1,0,.58S.23,.13,.23,.13Z"/>
      <ellipse class="cls-1" cx="17.24" cy="7.3" rx=".28" ry=".53" transform="translate(4.42 20.95) rotate(-69.74)"/>
    </g>
    <path class="cls-1" d="M36.79,0S19.2,6.83,19.41,7.35c.17,.43,17.68-6.38,17.61-6.9"/>
    <ellipse class="cls-1" cx="19.77" cy="7.18" rx=".53" ry=".28" transform="translate(-1.26 7.29) rotate(-20.26)"/>
    <path class="cls-3" d="M4.75,7.86l4.09,15.73,7.2-13.88s.08-.04,.1,0l6.09,14.34,4.67-14.67c.03-.11,.18-.11,.22,0l4.65,12.99"/>
  </g>
</svg>