<?xml version="1.0" encoding="UTF-8"?>
<svg id="Layer_2" data-name="Layer 2" xmlns="http://www.w3.org/2000/svg" viewBox="0 0 31.21 24.66">
  <defs>
    <style>
      .cls-1 {
        fill: #231f20;
      }

      .cls-2 {
        fill: none;
        stroke: #231f20;
        stroke-miterlimit: 10;
        stroke-width: .5px;
      }
    </style>
  </defs>
  <g id="Layer_1-2" data-name="Layer 1">
    <rect class="cls-2" x="24.48" y="13.13" width="5.77" height="11.28" rx="1.34" ry="1.34"/>
    <path class="cls-2" d="M2.85,13.12C2.85,6.01,8.62,.25,15.72,.25s12.87,5.76,12.87,12.87"/>
    <path class="cls-2" d="M5.13,13.12C5.13,7.27,9.87,2.52,15.72,2.52s10.6,4.74,10.6,10.6"/>
    <path class="cls-2" d="M29.54,13.28c.76,0,1.43,2.5,1.43,5.42s-.62,5.53-1.38,5.53"/>
    <rect class="cls-2" x=".96" y="13.13" width="5.77" height="11.28" rx="1.34" ry="1.34" transform="translate(7.7 37.54) rotate(-180)"/>
    <path class="cls-2" d="M1.68,13.28c-.76,0-1.43,2.5-1.43,5.42s.62,5.53,1.38,5.53"/>
    <path class="cls-1" d="M6.63,14.82c-.6,0-1.08,2.73-1.08,3.94s.49,4.14,1.08,4.14"/>
    <path class="cls-1" d="M24.48,14.82c.6,0,1.08,2.73,1.08,3.94s-.49,4.14-1.08,4.14"/>
  </g>
</svg>