<?xml version="1.0" encoding="UTF-8"?>
<svg id="Layer_2" data-name="Layer 2" xmlns="http://www.w3.org/2000/svg" viewBox="0 0 28.12 32.03">
  <defs>
    <style>
      .cls-1 {
        stroke-width: .75px;
      }

      .cls-1, .cls-2 {
        fill: none;
        stroke: #231f20;
        stroke-miterlimit: 10;
      }

      .cls-2 {
        stroke-width: .25px;
      }
    </style>
  </defs>
  <g id="Layer_1-2" data-name="Layer 1">
    <path class="cls-1" d="M.42,29.66s-.58,2,2.24,2,11.06-12.64,11.06-12.64l-2.83-2.83S.34,27.75,.42,29.66Z"/>
    <path class="cls-1" d="M10.9,16.2s-.8-10.38,3.32-13.6S25.07-.11,26.57,2.6s2.21,9.24-2.01,12.56c-4.22,3.32-10.84,3.86-10.84,3.86"/>
    <line class="cls-1" x1="16.21" y1="1.41" x2="26.91" y2="12.1"/>
    <line class="cls-1" x1="12.32" y1="5.18" x2="23.21" y2="16.07"/>
    <polygon class="cls-2" points="16.02 6.31 15.85 5.54 15.11 5.25 15.79 4.84 15.84 4.06 16.44 4.58 17.2 4.38 16.89 5.11 17.31 5.77 16.52 5.7 16.02 6.31"/>
    <polygon class="cls-2" points="19.37 9.63 19.2 8.86 18.47 8.57 19.14 8.17 19.2 7.38 19.79 7.9 20.55 7.71 20.24 8.43 20.66 9.1 19.88 9.03 19.37 9.63"/>
    <polygon class="cls-2" points="22.47 12.88 22.29 12.11 21.56 11.82 22.24 11.41 22.29 10.63 22.88 11.15 23.64 10.95 23.33 11.68 23.75 12.34 22.97 12.27 22.47 12.88"/>
  </g>
</svg>